<svg xmlns="http://www.w3.org/2000/svg" xmlns:xlink="http://www.w3.org/1999/xlink" width="200" zoomAndPan="magnify" viewBox="0 0 150 149.999998" height="200" preserveAspectRatio="xMidYMid meet" version="1.0"><defs><clipPath id="id1"><path d="M 0.0546875 74.441406 L 50.265625 74.441406 L 50.265625 117.675781 L 0.0546875 117.675781 Z M 0.0546875 74.441406 " clip-rule="nonzero"/></clipPath><clipPath id="id2"><path d="M 25 32.175781 L 100 32.175781 L 100 117.675781 L 25 117.675781 Z M 25 32.175781 " clip-rule="nonzero"/></clipPath><clipPath id="id3"><path d="M 75 32.175781 L 149.945312 32.175781 L 149.945312 117.675781 L 75 117.675781 Z M 75 32.175781 " clip-rule="nonzero"/></clipPath></defs><g clip-path="url(#id1)"><path fill="#109594" d="M 37.527344 74.488281 L 12.5625 74.488281 L 0.0546875 96.144531 L 12.5625 117.753906 L 37.527344 117.753906 L 50.035156 96.144531 L 37.527344 74.488281 " fill-opacity="1" fill-rule="nonzero"/></g><g clip-path="url(#id2)"><path fill="#1836b2" d="M 92.105469 82.484375 L 92.109375 82.480469 L 91.265625 81.023438 L 87.507812 74.488281 L 87.488281 74.488281 L 70.675781 45.398438 L 70.671875 45.402344 L 62.492188 31.269531 L 37.527344 31.269531 L 25.019531 52.878906 L 33.4375 67.425781 L 54.039062 103.09375 L 62.492188 117.753906 L 87.507812 117.753906 L 99.964844 96.144531 L 92.105469 82.484375 " fill-opacity="1" fill-rule="nonzero"/></g><g clip-path="url(#id3)"><path fill="#00f9a5" d="M 141.449219 81.433594 L 141.484375 81.414062 L 120.097656 44.328125 L 120.050781 44.359375 L 112.472656 31.269531 L 87.507812 31.269531 L 75 52.878906 L 87.507812 74.488281 L 87.515625 74.488281 L 100.003906 96.082031 L 99.964844 96.144531 L 112.472656 117.753906 L 137.441406 117.753906 L 149.945312 96.144531 L 141.449219 81.433594 " fill-opacity="1" fill-rule="nonzero"/></g></svg>